<?xml version="1.0" encoding="utf-8"?>
<!-- Generator: Adobe Illustrator 21.1.0, SVG Export Plug-In . SVG Version: 6.00 Build 0)  -->
<svg version="1.1" id="Layer_1" xmlns="http://www.w3.org/2000/svg" xmlns:xlink="http://www.w3.org/1999/xlink" x="0px" y="0px"
	 viewBox="0 0 245.2 122.6" style="enable-background:new 0 0 245.2 122.6;" xml:space="preserve">
<style type="text/css">
	.st0{fill:#210124;}
	.st1{fill:#9A94BC;}
	.st2{fill:#AEADF0;}
</style>
<g>
	<polygon class="st0" points="61.3,77.7 30.6,57.3 30.6,122.6 91.9,122.6 91.9,57.3 	"/>
	<polygon class="st1" points="245.2,0 122.6,0 183.9,40.9 	"/>
	<polygon class="st1" points="183.9,77.7 153.3,57.3 153.3,122.6 214.6,122.6 214.6,57.3 	"/>
	<polygon class="st0" points="122.6,0 0,0 61.3,40.9 	"/>
	<polygon class="st1" points="0,0 0,0 0,102.2 0,102.2 0,0 	"/>
	<polygon class="st1" points="122.6,0 122.6,0 122.6,0 	"/>
	<polygon class="st1" points="0,112.4 0,112.4 0,122.6 30.6,122.6 30.6,122.6 0,122.6 	"/>
	<rect x="91.9" y="122.6" class="st1" width="30.6" height="0"/>
	<polygon class="st1" points="102.2,112.4 102.2,38.2 61.3,65.4 20.4,38.2 20.4,112.4 0,112.4 0,122.6 30.6,122.6 30.6,57.3 
		61.3,77.7 91.9,57.3 91.9,122.6 122.6,122.6 122.6,112.4 	"/>
	<polygon class="st1" points="10.2,19.1 61.3,53.1 112.4,19.1 112.4,102.2 122.6,102.2 122.6,0 122.6,0 61.3,40.9 0,0 0,0 0,102.2 
		10.2,102.2 	"/>
	<polygon class="st0" points="214.6,122.6 214.6,122.6 245.2,122.6 245.2,112.4 245.2,112.4 245.2,122.6 	"/>
	<polygon class="st0" points="122.6,0 122.6,0 122.6,0 	"/>
	<rect x="122.6" y="122.6" class="st0" width="30.6" height="0"/>
	<polygon class="st0" points="245.2,102.2 245.2,102.2 245.2,0 245.2,0 245.2,0 	"/>
	<polygon class="st0" points="132.8,102.2 132.8,19.1 183.9,53.1 235,19.1 235,102.2 245.2,102.2 245.2,0 245.2,0 183.9,40.9 
		122.6,0 122.6,0 122.6,102.2 	"/>
	<polygon class="st0" points="224.8,38.2 183.9,65.4 143,38.2 143,112.4 122.6,112.4 122.6,122.6 153.3,122.6 153.3,57.3 
		183.9,77.7 214.6,57.3 214.6,122.6 245.2,122.6 245.2,112.4 224.8,112.4 	"/>
	<line class="st2" x1="122.6" y1="101.9" x2="122.6" y2="112.6"/>
	<g>
		<polygon class="st1" points="235,102.2 235,19.1 183.9,53.1 132.8,19.1 132.8,102.2 122.6,102.2 122.6,112.4 143,112.4 143,38.2 
			183.9,65.4 224.8,38.2 224.8,112.4 245.2,112.4 245.2,102.2 		"/>
		<polygon class="st0" points="122.6,97.4 122.6,0 122.6,0 122.6,102.2 112.4,102.2 112.4,19.1 61.3,53.1 10.2,19.1 10.2,102.2 
			0,102.2 0,112.4 20.4,112.4 20.4,38.2 61.3,65.4 102.2,38.2 102.2,112.4 122.6,112.4 122.6,122.6 122.6,122.6 122.6,113.7 
			122.6,112.4 122.6,102.2 		"/>
	</g>
</g>
</svg>
